<svg xmlns="http://www.w3.org/2000/svg" xmlns:xlink="http://www.w3.org/1999/xlink" width="32" height="48" viewBox="0 0 32 48">
  <path fill="#e5b472" d="M29 8.142v-8.142l-8 8h-10l-8-8v8.142c-1.722 0.446-3 1.997-3 3.858v36h32v-36c0-1.861-1.278-3.412-3-3.858z"></path>
  <path fill="#faebd9" d="M5 8v-3l3 3z"></path>
  <path fill="#faebd9" d="M27 8v-3l-3 3z"></path>
  <path fill="#faebd9" d="M24 21c-1.74 0-3.304 0.497-4.399 1.287 0.249 0.521 0.399 1.097 0.399 1.713 0 2.209-1.791 4-4 4s-4-1.791-4-4c0-0.616 0.15-1.192 0.399-1.713-1.096-0.79-2.658-1.287-4.399-1.287-3.313 0-6 1.791-6 4v23h28v-23c0-2.209-2.687-4-6-4z"></path>
  <path fill="#faebd9" d="M9.777 13.998c-1.653-0.367-2.893-1.111-2.771-1.663s1.561-0.702 3.214-0.335c1.653 0.367 2.893 1.111 2.771 1.663s-1.561 0.702-3.214 0.335z"></path>
  <path fill="#faebd9" d="M22.221 13.997c-1.653 0.366-3.092 0.216-3.215-0.336s1.119-1.296 2.772-1.662c1.653-0.366 3.092-0.216 3.215 0.336s-1.119 1.296-2.772 1.662z"></path>
  <path fill="#000" d="M12 18c0 1.105-0.895 2-2 2s-2-0.895-2-2c0-1.105 0.895-2 2-2s2 0.895 2 2z"></path>
  <path fill="#000" d="M24 18c0 1.105-0.895 2-2 2s-2-0.895-2-2c0-1.105 0.895-2 2-2s2 0.895 2 2z"></path>
  <path fill="#e51373" d="M18 32c0 1.104-0.896 2-2 2v0c-1.104 0-2-0.896-2-2v-2c0-1.104 0.896-2 2-2v0c1.104 0 2 0.896 2 2v2z"></path>
  <path fill="#000" d="M20 30c-1.557 0-2.825-1.195-2.971-2.714 0-0.001 0-0.001 0-0.001l0.941-1.57c0.567-0.944 0.13-1.715-0.97-1.715h-2c-1.1 0-1.537 0.771-0.971 1.715l0.941 1.57c0 0 0 0 0 0.001-0.145 1.519-1.413 2.714-2.97 2.714-0.552 0-1 0.447-1 1s0.448 1 1 1c1.641 0 3.088-0.806 4-2.031 0.912 1.225 2.358 2.031 4 2.031 0.553 0 1-0.447 1-1s-0.447-1-1-1z"></path>
</svg>
