<svg xmlns="http://www.w3.org/2000/svg" xmlns:xlink="http://www.w3.org/1999/xlink">
  <symbol id="icon-article" viewBox="0 0 32 32">
    <path d="M17 0h-12c-2.757 0-5 2.243-5 5v22c0 2.757 2.243 5 5 5h11c0.265 0 0.52-0.105 0.707-0.293l5-5c0.188-0.187 0.293-0.441 0.293-0.707v-21c0-2.757-2.243-5-5-5zM16 29.586v-0.586c0-1.71 1.289-3 3-3h0.586l-3.586 3.586zM20 24h-1c-2.804 0-5 2.196-5 5v1h-9c-1.654 0-3-1.346-3-3v-22c0-1.654 1.346-3 3-3h12c1.654 0 3 1.346 3 3v19z"></path>
    <path d="M17 6h-12c-0.552 0-1 0.448-1 1s0.448 1 1 1h12c0.553 0 1-0.448 1-1s-0.447-1-1-1z"></path>
    <path d="M17 10h-12c-0.552 0-1 0.448-1 1s0.448 1 1 1h12c0.553 0 1-0.448 1-1s-0.447-1-1-1z"></path>
    <path d="M17 14h-12c-0.552 0-1 0.447-1 1s0.448 1 1 1h12c0.553 0 1-0.447 1-1s-0.447-1-1-1z"></path>
    <path d="M28 0c-2.205 0-4 1.794-4 4v23c0 0.217 0.070 0.427 0.2 0.6l3 4c0.188 0.252 0.485 0.4 0.8 0.4s0.611-0.148 0.8-0.4l3-4c0.13-0.173 0.2-0.383 0.2-0.6v-23c0-2.206-1.795-4-4-4zM30 26.667l-2 2.666-2-2.666v-0.667h4v0.667zM30 24h-4v-18h4v18zM26 4c0-1.103 0.896-2 2-2s2 0.897 2 2h-4z"></path>
  </symbol>
  <symbol id="icon-shopping" viewBox="0 0 32 32">
    <path d="M29 7h-0.76c0.158-0.235 0.295-0.484 0.406-0.748 0.235-0.555 0.354-1.145 0.354-1.752s-0.119-1.197-0.354-1.752c-0.228-0.537-0.552-1.018-0.965-1.43-0.414-0.414-0.895-0.738-1.429-0.963-1.11-0.472-2.397-0.471-3.505-0.001-0.535 0.227-1.016 0.551-1.427 0.961l-5.32 5.277-5.318-5.273c-0.414-0.414-0.895-0.738-1.429-0.963-1.11-0.472-2.397-0.471-3.504-0.001-0.536 0.227-1.017 0.551-1.43 0.964-0.414 0.411-0.738 0.892-0.965 1.429-0.235 0.555-0.354 1.145-0.354 1.752s0.119 1.197 0.354 1.752c0.111 0.264 0.248 0.513 0.405 0.748h-0.759c-1.654 0-3 1.346-3 3v3c0 1.302 0.838 2.401 2 2.815v11.185c0 2.757 2.243 5 5 5h18c2.757 0 5-2.243 5-5v-11.185c1.162-0.414 2-1.514 2-2.815v-3c0-1.654-1.346-3-3-3zM22.732 2.732c0.23-0.23 0.498-0.411 0.796-0.537 0.613-0.26 1.329-0.261 1.944 0.001 0.297 0.125 0.564 0.306 0.795 0.536 0.23 0.229 0.41 0.497 0.537 0.794 0.13 0.308 0.196 0.636 0.196 0.974s-0.066 0.666-0.195 0.973c-0.127 0.297-0.307 0.565-0.537 0.795s-0.498 0.411-0.796 0.537c-0.307 0.129-0.634 0.195-0.972 0.195h-6.071l4.303-4.268zM15 14v-5h2v5h-2zM17 16v14h-2v-14h2zM6.527 6.803c-0.297-0.125-0.564-0.305-0.795-0.536-0.23-0.229-0.41-0.497-0.536-0.794-0.13-0.307-0.196-0.635-0.196-0.973s0.066-0.666 0.196-0.973c0.126-0.297 0.306-0.565 0.536-0.795s0.498-0.41 0.796-0.536c0.307-0.13 0.634-0.196 0.972-0.196s0.665 0.066 0.973 0.197c0.297 0.125 0.564 0.305 0.798 0.538l4.3 4.265h-6.071c-0.338 0-0.665-0.066-0.973-0.197zM2 10c0-0.551 0.449-1 1-1h10v5h-10c-0.551 0-1-0.448-1-1v-3zM4 27v-11h9v14h-6c-1.654 0-3-1.346-3-3zM25 30h-6v-14h9v11c0 1.654-1.346 3-3 3zM30 13c0 0.552-0.449 1-1 1h-10v-5h10c0.551 0 1 0.449 1 1v3z"></path>
  </symbol>
  <symbol id="icon-trial" viewBox="0 0 32 32">
    <path d="M31.121 26.879l-5.369-5.369c1.416-2.188 2.248-4.787 2.248-7.581 0-7.72-6.28-14-14-14s-14 6.28-14 14 6.28 14 14 14c2.757 0 5.323-0.813 7.492-2.193l5.387 5.386c0.566 0.566 1.32 0.878 2.121 0.878 0.802 0 1.555-0.313 2.121-0.878 0.567-0.566 0.879-1.32 0.879-2.122 0-0.801-0.312-1.555-0.879-2.121zM2 13.929c0-6.617 5.383-12 12-12s12 5.383 12 12c0 6.617-5.383 12-12 12s-12-5.383-12-12zM29.707 29.707c-0.377 0.379-1.036 0.377-1.414 0l-5.176-5.176c0.506-0.436 0.979-0.908 1.418-1.411l5.172 5.173c0.189 0.189 0.293 0.44 0.293 0.707 0 0.268-0.104 0.518-0.293 0.707z"></path>
    <path d="M21.778 6.15c-0.391-0.391-1.023-0.391-1.414 0-0.391 0.39-0.391 1.023 0 1.414 3.509 3.509 3.509 9.22 0 12.729-3.509 3.507-9.219 3.508-12.729 0-0.391-0.391-1.023-0.391-1.414 0s-0.391 1.023 0 1.414c2.145 2.145 4.961 3.216 7.778 3.216s5.634-1.071 7.778-3.216c4.29-4.289 4.29-11.268 0.001-15.557z"></path>
    <path d="M10 8.429c0 0.828-0.672 1.5-1.5 1.5s-1.5-0.672-1.5-1.5c0-0.828 0.672-1.5 1.5-1.5s1.5 0.672 1.5 1.5z"></path>
    <path d="M19 8.429c0 0.828-0.672 1.5-1.5 1.5s-1.5-0.672-1.5-1.5c0-0.828 0.672-1.5 1.5-1.5s1.5 0.672 1.5 1.5z"></path>
    <path d="M11.971 14.214c-0.146 1.519-1.415 2.715-2.971 2.715-0.552 0-1 0.447-1 1s0.448 1 1 1c1.641 0 3.088-0.806 4-2.031 0.912 1.226 2.359 2.031 4 2.031 0.553 0 1-0.447 1-1s-0.447-1-1-1c-1.557 0-2.825-1.196-2.971-2.715l0.942-1.57c0.566-0.944 0.129-1.715-0.971-1.715h-2c-1.1 0-1.537 0.771-0.971 1.715l0.942 1.57z"></path>
  </symbol>
  <symbol id="icon-review" viewBox="0 0 32 32">
    <path d="M9 6c0 0.552 0.448 1 1 1h1c1.654 0 3-1.346 3-3 0-1.103 0.897-2 2-2s2 0.897 2 2c0 1.654 1.346 3 3 3h1c0.553 0 1-0.448 1-1s-0.447-1-1-1h-1c-0.553 0-1-0.449-1-1 0-2.206-1.794-4-4-4s-4 1.794-4 4c0 0.551-0.449 1-1 1h-1c-0.552 0-1 0.448-1 1z"></path>
    <path d="M17 4c0 0.552-0.448 1-1 1s-1-0.448-1-1c0-0.552 0.448-1 1-1s1 0.448 1 1z"></path>
    <path d="M25 2h-2c-0.553 0-1 0.448-1 1s0.447 1 1 1h2c1.654 0 3 1.346 3 3v20c0 1.654-1.346 3-3 3h-18c-1.654 0-3-1.346-3-3v-20c0-1.654 1.346-3 3-3h2c0.552 0 1-0.448 1-1s-0.448-1-1-1h-2c-2.757 0-5 2.243-5 5v20c0 2.757 2.243 5 5 5h18c2.757 0 5-2.243 5-5v-20c0-2.757-2.243-5-5-5z"></path>
    <path d="M9 9c-1.654 0-3 1.346-3 3v4c0 1.654 1.346 3 3 3h4c1.654 0 3-1.346 3-3v-4c0-1.654-1.346-3-3-3h-4zM14 12v4c0 0.551-0.449 1-1 1h-4c-0.551 0-1-0.449-1-1v-4c0-0.551 0.449-1 1-1h4c0.551 0 1 0.449 1 1z"></path>
    <path d="M25 9h-6c-0.553 0-1 0.448-1 1s0.447 1 1 1h6c0.553 0 1-0.448 1-1s-0.447-1-1-1z"></path>
    <path d="M25 13h-6c-0.553 0-1 0.448-1 1s0.447 1 1 1h6c0.553 0 1-0.448 1-1s-0.447-1-1-1z"></path>
    <path d="M25 17h-6c-0.553 0-1 0.447-1 1s0.447 1 1 1h6c0.553 0 1-0.447 1-1s-0.447-1-1-1z"></path>
    <path d="M25 21h-18c-0.552 0-1 0.447-1 1s0.448 1 1 1h18c0.553 0 1-0.447 1-1s-0.447-1-1-1z"></path>
    <path d="M25 25h-18c-0.552 0-1 0.447-1 1s0.448 1 1 1h18c0.553 0 1-0.447 1-1s-0.447-1-1-1z"></path>
  </symbol>
  <symbol id="icon-login" viewBox="0 0 32 32">
    <path d="M16 16c-4.411 0-8-3.589-8-8s3.589-8 8-8 8 3.589 8 8-3.589 8-8 8zM16 2c-3.309 0-6 2.691-6 6s2.691 6 6 6c3.309 0 6-2.691 6-6s-2.691-6-6-6z"></path>
    <path d="M23 18c1.654 0 3 1.346 3 3v6c0 1.654-1.346 3-3 3h-14c-1.654 0-3-1.346-3-3v-6c0-1.654 1.346-3 3-3h0.4l3.952 7.412c0.060 0.111 0.134 0.221 0.218 0.32 0.561 0.789 1.467 1.268 2.43 1.268 0.947 0 1.842-0.464 2.402-1.23 0.095-0.107 0.177-0.229 0.244-0.355l3.954-7.415h0.4zM23 16h-1c-0.383 0-0.704 0.222-0.872 0.537l-0.011-0.008-4.234 7.941-0.027 0.016c-0.172 0.302-0.484 0.514-0.856 0.514s-0.684-0.212-0.855-0.514l-0.027-0.016-4.234-7.941-0.011 0.008c-0.169-0.315-0.49-0.537-0.873-0.537h-1c-2.757 0-5 2.243-5 5v6c0 2.757 2.243 5 5 5h14c2.757 0 5-2.243 5-5v-6c0-2.757-2.243-5-5-5v0z"></path>
  </symbol>
  <symbol id="icon-search" viewBox="0 0 32 32">
    <path d="M31.123 26.879l-8.796-8.796c1.057-1.787 1.674-3.861 1.674-6.083 0-6.617-5.384-12-12-12s-12.001 5.383-12.001 12 5.384 12 12 12c2.221 0 4.297-0.617 6.083-1.674l8.796 8.798c0.586 0.584 1.353 0.876 2.121 0.876 0.77 0 1.538-0.293 2.124-0.877 1.168-1.171 1.168-3.074-0.001-4.244zM2 12c0-5.515 4.487-10 10-10 5.514 0 10 4.486 10 10s-4.486 10-10 10c-5.513 0-10-4.486-10-10zM21.156 19.74l6.43 6.432-1.414 1.415-6.431-6.433c0.51-0.429 0.984-0.904 1.415-1.414zM29.708 29.707c-0.39 0.391-1.022 0.391-1.415 0.001l-0.707-0.707 1.414-1.415 0.707 0.707c0.391 0.391 0.391 1.025 0.001 1.414z"></path>
    <path d="M12 3c-4.962 0-9 4.038-9 9s4.037 9 9 9 9-4.037 9-9-4.037-9-9-9zM12 19c-3.859 0-7-3.141-7-7s3.141-7 7-7 7 3.14 7 7c0 3.859-3.141 7-7 7z"></path>
  </symbol>
  <symbol id="icon-paw" viewBox="0 0 32 32">
    <path d="M8 16c0 2.209-1.791 4-4 4s-4-1.791-4-4c0-2.209 1.791-4 4-4s4 1.791 4 4z"></path>
    <path d="M14 6c0 2.209-1.791 4-4 4s-4-1.791-4-4c0-2.209 1.791-4 4-4s4 1.791 4 4z"></path>
    <path d="M26 6c0 2.209-1.791 4-4 4s-4-1.791-4-4c0-2.209 1.791-4 4-4s4 1.791 4 4z"></path>
    <path d="M32 16c0 2.209-1.791 4-4 4s-4-1.791-4-4c0-2.209 1.791-4 4-4s4 1.791 4 4z"></path>
    <path d="M23.898 20.939l0.010-0.006c-1.664-1.191-2.733-3.041-2.932-5.078l-0.023 0.014c-0.241-2.537-2.352-4.529-4.953-4.529s-4.712 1.992-4.953 4.529l-0.024-0.014c-0.198 2.037-1.267 3.887-2.932 5.078l0.009 0.006c-1.267 0.907-2.1 2.383-2.1 4.061 0 2.762 2.239 5 5 5 0.74 0 1.437-0.171 2.068-0.459v0.012c1.863-0.848 4.001-0.848 5.863 0v-0.012c0.632 0.288 1.329 0.459 2.069 0.459 2.762 0 5-2.238 5-5 0-1.678-0.833-3.154-2.102-4.061z"></path>
  </symbol>
  <symbol id="icon-longarrow-t" viewBox="0 0 32 32">
    <path d="M31.198 14.959l-13-14c-0.011-0.012-0.024-0.020-0.036-0.031-0.546-0.57-1.31-0.928-2.162-0.928s-1.616 0.358-2.162 0.928c-0.011 0.012-0.025 0.020-0.036 0.031l-13 14c-1.127 1.214-1.057 3.112 0.157 4.239 1.213 1.126 3.112 1.058 4.24-0.157l7.801-8.401v18.36c0 1.657 1.343 3 3 3s3-1.343 3-3v-18.36l7.802 8.401c0.591 0.637 1.393 0.959 2.198 0.959 0.731 0 1.464-0.266 2.041-0.802 1.215-1.127 1.285-3.025 0.157-4.239z"></path>
  </symbol>
  <symbol id="icon-longarrow-b" viewBox="0 0 32 32">
    <path d="M0.802 17.041l13 14c0.011 0.012 0.024 0.020 0.036 0.031 0.546 0.57 1.311 0.928 2.162 0.928s1.616-0.358 2.162-0.928c0.012-0.012 0.025-0.020 0.036-0.031l13-14c1.128-1.214 1.058-3.112-0.156-4.239-1.214-1.126-3.112-1.058-4.24 0.157l-7.802 8.401v-18.36c0-1.657-1.343-3-3-3s-3 1.343-3 3v18.36l-7.802-8.401c-0.59-0.637-1.393-0.959-2.198-0.959-0.731 0-1.464 0.266-2.041 0.802-1.214 1.127-1.285 3.025-0.157 4.239z"></path>
  </symbol>
  <symbol id="icon-longarrow-l" viewBox="0 0 32 32">
    <path d="M29 13h-18.361l8.402-7.802c1.215-1.127 1.285-3.025 0.157-4.24-1.126-1.214-3.024-1.285-4.24-0.157l-14 13c-0.013 0.012-0.022 0.028-0.035 0.040-0.090 0.087-0.168 0.185-0.247 0.282-0.046 0.058-0.099 0.11-0.141 0.171-0.081 0.117-0.146 0.244-0.209 0.371-0.025 0.050-0.058 0.096-0.080 0.147-0.069 0.16-0.12 0.329-0.16 0.501-0.006 0.025-0.017 0.047-0.022 0.072-0.042 0.2-0.064 0.405-0.064 0.615s0.022 0.415 0.063 0.613c0.005 0.022 0.015 0.043 0.021 0.064 0.041 0.176 0.092 0.347 0.162 0.51 0.021 0.049 0.053 0.093 0.077 0.141 0.064 0.13 0.131 0.259 0.213 0.377 0.041 0.060 0.092 0.111 0.138 0.168 0.080 0.099 0.159 0.197 0.25 0.286 0.013 0.012 0.021 0.027 0.035 0.039l14 13c0.577 0.536 1.31 0.802 2.040 0.802 0.806 0 1.608-0.322 2.199-0.959 1.128-1.214 1.058-3.112-0.157-4.239l-8.402-7.802h18.361c1.657 0 3-1.343 3-3s-1.343-3-3-3z"></path>
  </symbol>
  <symbol id="icon-longarrow-r" viewBox="0 0 32 32">
    <path d="M3 19h18.361l-8.402 7.802c-1.215 1.127-1.285 3.025-0.157 4.239 1.126 1.214 3.024 1.285 4.239 0.157l14-13c0.014-0.013 0.022-0.028 0.035-0.040 0.091-0.087 0.169-0.185 0.248-0.282 0.046-0.058 0.099-0.11 0.141-0.171 0.080-0.117 0.146-0.244 0.209-0.371 0.025-0.051 0.059-0.097 0.080-0.147 0.068-0.16 0.119-0.329 0.16-0.502 0.006-0.024 0.018-0.047 0.022-0.072 0.042-0.199 0.064-0.404 0.064-0.613s-0.022-0.415-0.063-0.613c-0.005-0.022-0.015-0.043-0.021-0.064-0.041-0.176-0.092-0.347-0.162-0.51-0.021-0.049-0.053-0.093-0.076-0.141-0.064-0.13-0.131-0.259-0.213-0.377-0.041-0.060-0.093-0.111-0.139-0.168-0.080-0.099-0.158-0.197-0.25-0.286-0.013-0.012-0.021-0.027-0.035-0.039l-13.999-13c-0.578-0.537-1.311-0.802-2.041-0.802-0.806 0-1.608 0.322-2.199 0.959-1.128 1.214-1.058 3.112 0.157 4.239l8.402 7.802h-18.361c-1.657 0-3 1.343-3 3 0 1.656 1.343 3 3 3z"></path>
  </symbol>
  <symbol id="icon-arrow-t" viewBox="0 0 32 32">
    <path d="M29.001 26c-0.806 0-1.608-0.322-2.199-0.961l-10.802-11.656-10.802 11.656c-1.128 1.218-3.026 1.285-4.24 0.157-1.214-1.129-1.284-3.031-0.157-4.248l13-14.029c1.135-1.226 3.262-1.226 4.396 0l13 14.029c1.128 1.217 1.058 3.119-0.157 4.248-0.576 0.538-1.309 0.804-2.039 0.804z"></path>
  </symbol>
  <symbol id="icon-arrow-b" viewBox="0 0 32 32">
    <path d="M3 6c0.806 0 1.608 0.322 2.199 0.961l10.801 11.656 10.802-11.656c1.128-1.218 3.026-1.285 4.24-0.157s1.284 3.031 0.156 4.248l-13 14.029c-1.135 1.226-3.261 1.226-4.396 0l-13-14.029c-1.128-1.217-1.058-3.119 0.157-4.248 0.578-0.538 1.31-0.804 2.041-0.804z"></path>
  </symbol>
  <symbol id="icon-arrow-l" viewBox="0 0 32 32">
    <path d="M21.999 32c-0.73 0-1.463-0.266-2.040-0.802l-14-13c-0.612-0.567-0.959-1.364-0.959-2.198s0.347-1.631 0.958-2.198l14-13c1.214-1.128 3.113-1.057 4.239 0.157 1.128 1.214 1.058 3.112-0.157 4.24l-11.631 10.801 11.632 10.802c1.215 1.127 1.285 3.025 0.157 4.239-0.591 0.637-1.393 0.959-2.199 0.959z"></path>
  </symbol>
  <symbol id="icon-arrow-r" viewBox="0 0 32 32">
    <path d="M10.001 0c0.73 0 1.463 0.266 2.040 0.802l14.001 13c0.611 0.567 0.958 1.364 0.958 2.198s-0.347 1.631-0.958 2.199l-14.001 13c-1.214 1.128-3.113 1.057-4.239-0.157-1.128-1.214-1.058-3.112 0.157-4.239l11.633-10.803-11.633-10.802c-1.215-1.127-1.285-3.026-0.157-4.24 0.591-0.636 1.393-0.958 2.199-0.958z"></path>
  </symbol>
</svg>